/* XPM */
static char * teste1_xpm[] = {
"64 64 634 2",
"  	c #936AB4",
". 	c #4FC8F8",
"+ 	c #50C8F8",
"@ 	c #53C8F8",
"# 	c #52C8F8",
"$ 	c #60C9F8",
"% 	c #5FC9F8",
"& 	c #61C9F8",
"* 	c #69CBF8",
"= 	c #6FCCF8",
"- 	c #73CDF7",
"; 	c #7CCFF7",
"> 	c #88D1F7",
", 	c #8FD4F6",
"' 	c #93D6F5",
") 	c #97D7F5",
"! 	c #9FD9F5",
"~ 	c #A5DBF5",
"{ 	c #ABDDF3",
"] 	c #ACDEF3",
"^ 	c #B2E0F3",
"/ 	c #B9E2F3",
"( 	c #BDE3F2",
"_ 	c #80D0F8",
": 	c #84D1F8",
"< 	c #93D5F7",
"[ 	c #A0D8F6",
"} 	c #AADCF6",
"| 	c #B3E0F3",
"1 	c #BCE3F3",
"2 	c #C1E5F2",
"3 	c #C4E6F1",
"4 	c #C6E7F1",
"5 	c #C7E8F1",
"6 	c #C8E8F0",
"7 	c #82D0F8",
"8 	c #87D2F8",
"9 	c #8ED3F7",
"0 	c #94D5F7",
"a 	c #9AD7F6",
"b 	c #A0D9F5",
"c 	c #A5DAF5",
"d 	c #AADCF5",
"e 	c #AEDEF4",
"f 	c #B5E0F4",
"g 	c #B6E0F4",
"h 	c #BAE2F3",
"i 	c #BDE4F2",
"j 	c #C0E5F2",
"k 	c #C3E5F2",
"l 	c #C5E6F2",
"m 	c #81D0F8",
"n 	c #83D0F8",
"o 	c #85D1F8",
"p 	c #90D3F8",
"q 	c #92D4F8",
"r 	c #96D6F7",
"s 	c #9ED6F8",
"t 	c #AEC4C8",
"u 	c #BFD5DB",
"v 	c #B9E0F4",
"w 	c #B5DEF6",
"x 	c #B2DDF6",
"y 	c #B1DCF6",
"z 	c #B0DCF6",
"A 	c #ADDAF8",
"B 	c #A9D9F8",
"C 	c #A9D8F8",
"D 	c #A8D8F8",
"E 	c #C5CDC4",
"F 	c #CFB063",
"G 	c #E0C071",
"H 	c #D5D0B4",
"I 	c #C9E5EA",
"J 	c #C7E8F0",
"K 	c #C4E6F2",
"L 	c #C2E5F2",
"M 	c #C1E4F2",
"N 	c #BDE2F4",
"O 	c #B7DFF5",
"P 	c #AEDBF7",
"Q 	c #ACDAF8",
"R 	c #ADC7D4",
"S 	c #B0BBBA",
"T 	c #C0BFAE",
"U 	c #D0B061",
"V 	c #E0C070",
"W 	c #DCC58A",
"X 	c #CEDDD6",
"Y 	c #C7E7F0",
"Z 	c #C3E6F2",
"` 	c #C0E4F2",
" .	c #BCE2F4",
"..	c #BBE1F4",
"+.	c #B8E0F4",
"@.	c #B3DDF6",
"#.	c #ABDAF8",
"$.	c #ABCCDD",
"%.	c #B89B55",
"&.	c #B89848",
"*.	c #CAAA5B",
"=.	c #C7D4CF",
"-.	c #AFDBF6",
";.	c #AFDBF7",
">.	c #A8D8F7",
",.	c #ABD0E5",
"'.	c #AABBBF",
").	c #8AA3B5",
"!.	c #8CA7B9",
"~.	c #A6D4F1",
"{.	c #B4A883",
"].	c #CEAF60",
"^.	c #DFBF6F",
"/.	c #CAC09F",
"(.	c #ABD3EB",
"_.	c #B1BDBB",
":.	c #B5A880",
"<.	c #B8994A",
"[.	c #B79A48",
"}.	c #806D48",
"|.	c #685848",
"1.	c #8CA6B8",
"2.	c #ACCEDF",
"3.	c #C1A354",
"4.	c #CCAE5E",
"5.	c #CDAD5F",
"6.	c #B89C58",
"7.	c #BAC2B9",
"8.	c #AAD8F7",
"9.	c #AAD8F6",
"0.	c #BECBC9",
"a.	c #B89A48",
"b.	c #A69048",
"c.	c #6B6257",
"d.	c #A3D0EE",
"e.	c #AEC6D1",
"f.	c #DBBC6C",
"g.	c #B99949",
"h.	c #BC9E4F",
"i.	c #CFCEB6",
"j.	c #B8E0F7",
"k.	c #B8E0F8",
"l.	c #BEDBE8",
"m.	c #D6C89E",
"n.	c #D9B96A",
"o.	c #B79F48",
"p.	c #8D8E84",
"q.	c #AEC5D1",
"r.	c #CEB162",
"s.	c #D7B869",
"t.	c #DEBE6F",
"u.	c #CFAF60",
"v.	c #C8BE9E",
"w.	c #B8B9AB",
"x.	c #B7C6C7",
"y.	c #B7DFF8",
"z.	c #B8DFF6",
"A.	c #CAD2C9",
"B.	c #DEC17A",
"C.	c #B8A048",
"D.	c #A9AB9C",
"E.	c #C7AA58",
"F.	c #C1A652",
"G.	c #C3A759",
"H.	c #C9AB5C",
"I.	c #D5B667",
"J.	c #CBAB5C",
"K.	c #B8994D",
"L.	c #AFC9D3",
"M.	c #B5DEF8",
"N.	c #B69E48",
"O.	c #8D999D",
"P.	c #C2A552",
"Q.	c #B9A049",
"R.	c #B69C5C",
"S.	c #DCBD6D",
"T.	c #CDAF60",
"U.	c #CCAD5E",
"V.	c #B5A374",
"W.	c #A9D5F1",
"X.	c #90A4AF",
"Y.	c #8C9CA6",
"Z.	c #B0B8B0",
"`.	c #B7D1DA",
" +	c #B7DEF4",
".+	c #BBDEF1",
"++	c #DEC179",
"@+	c #D1B263",
"#+	c #9F8948",
"$+	c #80919D",
"%+	c #B99C49",
"&+	c #AE9648",
"*+	c #AB925C",
"=+	c #C4A657",
"-+	c #D3B565",
";+	c #D3B465",
">+	c #BFA151",
",+	c #B89847",
"'+	c #ADCBD9",
")+	c #91AFC4",
"!+	c #816E48",
"~+	c #B7A26A",
"{+	c #B7BAAB",
"]+	c #B7DEF5",
"^+	c #BCDDF0",
"/+	c #E0C06F",
"(+	c #D2B464",
"_+	c #B69848",
":+	c #776648",
"<+	c #B89B48",
"[+	c #988348",
"}+	c #AA925C",
"|+	c #B89A4A",
"1+	c #D9BA6B",
"2+	c #B89949",
"3+	c #AEC3CD",
"4+	c #A5D3F2",
"5+	c #6E6861",
"6+	c #A79048",
"7+	c #C3CEC9",
"8+	c #D9BA6A",
"9+	c #A88B48",
"0+	c #7C6A48",
"a+	c #BFA152",
"b+	c #CCAE5F",
"c+	c #91958E",
"d+	c #D8B96B",
"e+	c #CAD2C8",
"f+	c #CBAD5E",
"g+	c #A68A48",
"h+	c #AE9148",
"i+	c #6A5948",
"j+	c #947D48",
"k+	c #B89D48",
"l+	c #A7ADA2",
"m+	c #D8B869",
"n+	c #DFC072",
"o+	c #B9CFD6",
"p+	c #DDBE6E",
"q+	c #BE9F50",
"r+	c #B19348",
"s+	c #B69C48",
"t+	c #A68E48",
"u+	c #9F8448",
"v+	c #695948",
"w+	c #AC9548",
"x+	c #B89C48",
"y+	c #CCAC5D",
"z+	c #C3A455",
"A+	c #8B9AA3",
"B+	c #B49D48",
"C+	c #AED4E9",
"D+	c #BBA368",
"E+	c #D3B566",
"F+	c #D8BA6A",
"G+	c #A98C48",
"H+	c #A08A48",
"I+	c #9E8348",
"J+	c #A28C57",
"K+	c #887548",
"L+	c #CDAE5F",
"M+	c #8395A3",
"N+	c #998448",
"O+	c #BEDCEB",
"P+	c #B8DFF5",
"Q+	c #B6D1DB",
"R+	c #B7BBAD",
"S+	c #8E9695",
"T+	c #848F95",
"U+	c #849097",
"V+	c #A2CAE4",
"W+	c #B1B4A5",
"X+	c #BC9C4D",
"Y+	c #786748",
"Z+	c #A58F48",
"`+	c #927B49",
" @	c #AC9148",
".@	c #726148",
"+@	c #B49748",
"@@	c #B89849",
"#@	c #CEB061",
"$@	c #BFDCEA",
"%@	c #B7A26C",
"&@	c #9D8848",
"*@	c #80909A",
"=@	c #A9D6F3",
"-@	c #B79E5D",
";@	c #C0A152",
">@	c #BEA050",
",@	c #8A7748",
"'@	c #927948",
")@	c #957C48",
"!@	c #A58948",
"~@	c #D6B868",
"{@	c #BAA56E",
"]@	c #766549",
"^@	c #9AC0D9",
"/@	c #A9D5F2",
"(@	c #917B49",
"_@	c #B89E48",
":@	c #917B48",
"<@	c #947B48",
"[@	c #A48848",
"}@	c #BEDBE9",
"|@	c #9F8C53",
"1@	c #A4D2EF",
"2@	c #CFB061",
"3@	c #937D4A",
"4@	c #B19A48",
"5@	c #6E5D48",
"6@	c #A48D48",
"7@	c #B69D48",
"8@	c #AF9148",
"9@	c #BB9D4E",
"0@	c #CFCEB9",
"a@	c #AB9858",
"b@	c #A8D7F7",
"c@	c #C5A657",
"d@	c #B89948",
"e@	c #A38B48",
"f@	c #7E6948",
"g@	c #7B6848",
"h@	c #927E48",
"i@	c #9C8348",
"j@	c #957B48",
"k@	c #C7A95A",
"l@	c #A48E48",
"m@	c #D6B768",
"n@	c #897A58",
"o@	c #BA9B4B",
"p@	c #BC9D4D",
"q@	c #7A6848",
"r@	c #80909D",
"s@	c #B19548",
"t@	c #746348",
"u@	c #B59A48",
"v@	c #7B6949",
"w@	c #B39549",
"x@	c #AF9756",
"y@	c #B49649",
"z@	c #A28C48",
"A@	c #D5B767",
"B@	c #AB9448",
"C@	c #6D6258",
"D@	c #A18B48",
"E@	c #6A5D51",
"F@	c #83939C",
"G@	c #98B8CA",
"H@	c #A9C8D7",
"I@	c #BCC2B6",
"J@	c #B8A676",
"K@	c #B69748",
"L@	c #867249",
"M@	c #9B8648",
"N@	c #7C6B49",
"O@	c #C9AB5F",
"P@	c #A8915A",
"Q@	c #806E49",
"R@	c #867348",
"S@	c #BA9A4B",
"T@	c #6B6158",
"U@	c #B79848",
"V@	c #737371",
"W@	c #9DC5E0",
"X@	c #A9D8F7",
"Y@	c #BAC5BE",
"Z@	c #BFA45B",
"`@	c #86734A",
" #	c #B59D48",
".#	c #B2995F",
"+#	c #AE955D",
"@#	c #8C7848",
"##	c #B89F48",
"$#	c #8A7549",
"%#	c #B79748",
"&#	c #DBBB6B",
"*#	c #DEBF6F",
"=#	c #BB9C4D",
"-#	c #A3894A",
";#	c #B49548",
">#	c #6B5A48",
",#	c #737575",
"'#	c #A2CEEB",
")#	c #B7C1BB",
"!#	c #947F48",
"~#	c #8E7748",
"{#	c #6B5F54",
"]#	c #B1985F",
"^#	c #6B5B48",
"/#	c #AE9748",
"(#	c #8B774A",
"_#	c #D4B666",
":#	c #A38949",
"<#	c #6B5C48",
"[#	c #B39448",
"}#	c #6A5A48",
"|#	c #675848",
"1#	c #6B6156",
"2#	c #B5D3E2",
"3#	c #C3A659",
"4#	c #B29A48",
"5#	c #6E5E48",
"6#	c #907748",
"7#	c #767B7D",
"8#	c #968354",
"9#	c #B89E5D",
"0#	c #8B7848",
"a#	c #756248",
"b#	c #9D8748",
"c#	c #D4BB65",
"d#	c #BDA456",
"e#	c #6D5D48",
"f#	c #AB9348",
"g#	c #B79E48",
"h#	c #8EABBD",
"i#	c #CDC5A5",
"j#	c #B99A4A",
"k#	c #937F48",
"l#	c #8499A6",
"m#	c #6A5B48",
"n#	c #CCB067",
"o#	c #CBAF5D",
"p#	c #796848",
"q#	c #AE9248",
"r#	c #8295A2",
"s#	c #D2B963",
"t#	c #937E4B",
"u#	c #B69F48",
"v#	c #727371",
"w#	c #A6D4F3",
"x#	c #AFD5ED",
"y#	c #D0B368",
"z#	c #B29548",
"A#	c #BEA152",
"B#	c #91AFC3",
"C#	c #978354",
"D#	c #CCB05D",
"E#	c #A08B48",
"F#	c #7E6C49",
"G#	c #B8A063",
"H#	c #BCBCA6",
"I#	c #B1CBD5",
"J#	c #9EC2D6",
"K#	c #8AA1AF",
"L#	c #6D655D",
"M#	c #BFA557",
"N#	c #6C5C48",
"O#	c #6D5C48",
"P#	c #8F7A4A",
"Q#	c #90AEC2",
"R#	c #BED0D3",
"S#	c #C3A556",
"T#	c #9ABFD8",
"U#	c #685847",
"V#	c #6B5B49",
"W#	c #B79F53",
"X#	c #7E6D49",
"Y#	c #BDA052",
"Z#	c #BCBEAD",
"`#	c #A9D7F5",
" $	c #A1CCE9",
".$	c #787F83",
"+$	c #B59748",
"@$	c #6C6258",
"#$	c #A4D1F0",
"$$	c #C5C9BA",
"%$	c #A1CCE8",
"&$	c #695B4C",
"*$	c #998048",
"=$	c #8D7948",
"-$	c #B9BCAC",
";$	c #A4D2F1",
">$	c #788084",
",$	c #AD8F48",
"'$	c #917C4A",
")$	c #99824A",
"!$	c #B19248",
"~$	c #818F9A",
"{$	c #D1C59E",
"]$	c #C2A455",
"^$	c #7B6948",
"/$	c #A6D5F4",
"($	c #6C645B",
"_$	c #997F48",
":$	c #AF9848",
"<$	c #B9D1DB",
"[$	c #857248",
"}$	c #DBC385",
"|$	c #DEBE6E",
"1$	c #C2A454",
"2$	c #747574",
"3$	c #CFC299",
"4$	c #93B4C9",
"5$	c #685849",
"6$	c #685948",
"7$	c #9CC2DC",
"8$	c #ACD6F2",
"9$	c #DFC075",
"0$	c #B09348",
"a$	c #B79B48",
"b$	c #7E8B95",
"c$	c #AF9248",
"d$	c #CFB163",
"e$	c #B1D5E9",
"f$	c #A7D6F5",
"g$	c #777C7E",
"h$	c #AC8F48",
"i$	c #B29B48",
"j$	c #6D655E",
"k$	c #A9D4F0",
"l$	c #695C4C",
"m$	c #A4D1EF",
"n$	c #B4D4E5",
"o$	c #DEBF70",
"p$	c #C4A556",
"q$	c #8F7B48",
"r$	c #A28848",
"s$	c #8599A6",
"t$	c #A28648",
"u$	c #C0CECD",
"v$	c #94B6CC",
"w$	c #8B7648",
"x$	c #6A5E52",
"y$	c #869BA9",
"z$	c #9EC3D9",
"A$	c #B1CEDB",
"B$	c #BEBFAB",
"C$	c #B9A365",
"D$	c #947E4A",
"E$	c #716F6C",
"F$	c #BAD1DB",
"G$	c #D2B364",
"H$	c #B09848",
"I$	c #726249",
"J$	c #AD9049",
"K$	c #8CA7BA",
"L$	c #C6C6B2",
"M$	c #6F6963",
"N$	c #AD9548",
"O$	c #706E6B",
"P$	c #9CC3DD",
"Q$	c #B6C5C4",
"R$	c #BEA258",
"S$	c #8D784A",
"T$	c #726048",
"U$	c #7A8387",
"V$	c #C1CFCC",
"W$	c #CAAB5C",
"X$	c #8F7A48",
"Y$	c #AC9049",
"Z$	c #93B3C8",
"`$	c #756448",
" %	c #AD9648",
".%	c #D4C498",
"+%	c #8497A5",
"@%	c #8B7748",
"#%	c #6E6963",
"$%	c #9FC9E5",
"%%	c #B8CACD",
"&%	c #82929E",
"*%	c #C6CCC3",
"=%	c #C2A354",
"-%	c #99BDD6",
";%	c #6F5E48",
">%	c #DCC27E",
",%	c #A9D8F6",
"'%	c #93B3C9",
")%	c #695A4B",
"!%	c #97BAD2",
"~%	c #ADD6F0",
"{%	c #C8B070",
"]%	c #89A2B2",
"^%	c #CACAB7",
"/%	c #BA9B4C",
"(%	c #726149",
"_%	c #9EC7E1",
":%	c #B09448",
"<%	c #C0A252",
"[%	c #DDBD6D",
"}%	c #E0C072",
"|%	c #AED6EE",
"1%	c #8397A3",
"2%	c #C6CCC1",
"3%	c #675748",
"4%	c #8EAABD",
"5%	c #C6C3A9",
"6%	c #8D7548",
"7%	c #695B4D",
"8%	c #907C48",
"9%	c #B6D3E1",
"0%	c #6B5F51",
"a%	c #746753",
"b%	c #D2BE88",
"c%	c #C2BB9E",
"d%	c #A6D4F2",
"e%	c #6B6056",
"f%	c #B09948",
"g%	c #CFB162",
"h%	c #BDD0D6",
"i%	c #A7D7F6",
"j%	c #747576",
"k%	c #8B9BA3",
"l%	c #B0D5EB",
"m%	c #CBAF63",
"n%	c #B69648",
"o%	c #B19948",
"p%	c #98BCD3",
"q%	c #BEB18C",
"r%	c #897648",
"s%	c #A58A48",
"t%	c #A2CDEB",
"u%	c #A1CDEA",
"v%	c #6D665D",
"w%	c #B09248",
"x%	c #C0A259",
"y%	c #BAC4BE",
"z%	c #7A8389",
"A%	c #B19247",
"B%	c #9BBACE",
"C%	c #B3C7CD",
"D%	c #B79B51",
"E%	c #AE9048",
"F%	c #A38D48",
"G%	c #96B8CF",
"H%	c #A2CDEA",
"I%	c #B3A275",
"J%	c #A89148",
"K%	c #897248",
"L%	c #967D48",
"M%	c #685745",
"N%	c #675747",
"O%	c #685746",
"P%	c #675746",
"Q%	c #955087",
"                                                                                                                                ",
". . . . . . . . . . . . . . . . . . . . . . . . . . . . . . . . . . . . . . . . . . . . . . . . . . . . . . . . . . . . . . . . ",
"+ + + + + + + + + + + + + + + + + + + + + + + + + + + + + + + + + + + + + + + + + + + + + + + + + + + + + + + + + + + + + + + + ",
"+ + + + + + + + + + + + + + + + + + + + + + + + + + + + + + + + + + + + + + + + + + + + + + + + + + + + + + + + + + + + + + + + ",
"+ + + + + + + + + + + + + + + + + + + + + + + + + + + + + + + + + + + + + + + + + + + + + + + + + + + + + + + + + + + + + + + + ",
"+ + + + + + + + + + + + + + + + + + + + + + + + + + + + + + + + + + + + + + + + + + + + + + + + + + + + + + + + + + + + + + + + ",
"+ + + + + + + + + + + + + + + + + + + + + + + + + + + + + + + + + + + + + + + + + + + + + + + + + + + + + + + + + + + + + + + + ",
"+ + + + + + + + + + + + + + + + + + + + + + + + + + + + + + + + + + + + + + + + + + + + + + + + + + + + + + + + + + + + + + + + ",
"+ + + + + + + + + + + + + + + + + + + + + + + + + + + + + + + + + + + + + + + + + + + + + + + + + + + + + + + + + + + + + + + + ",
"+ + + + + + + + + + + + + + + + + + + + + + + + + + + + + + + + + + + + + + + + + + + + + + + + + + + + + + + + + + + + + + + + ",
"+ + + + + + + + + + + + + + + + + + + + + + + + + + + + + + + + + + + + + + + + + + + + + + + + + + + + + + + + + + + + + + + + ",
"+ + + + + + + + + + + + + + + + + + + + + + + + + + + + + + + + + + + + + + + + + + + + + + + + + + + + + + + + + + + + + + + + ",
"@ @ @ @ @ @ @ @ @ @ @ @ @ @ @ @ @ @ @ @ @ @ @ @ @ @ @ @ @ @ @ @ @ @ @ @ @ @ @ @ @ @ @ @ @ @ @ @ @ @ @ @ @ @ @ @ @ @ @ @ @ @ @ # ",
"$ $ $ $ $ $ $ $ $ $ $ $ $ $ $ $ $ $ $ $ $ $ $ $ $ $ $ $ $ $ $ $ $ $ $ $ $ $ $ $ $ $ $ $ $ % % % & * = - ; > , ' ) ! ~ { ] ^ / ( ",
"_ _ _ _ _ _ _ _ _ _ _ _ _ _ _ _ _ _ _ _ _ _ _ _ _ _ _ _ _ _ _ _ _ _ _ _ _ _ _ _ : < [ } | / 1 2 3 4 5 6 6 6 6 6 6 6 6 6 6 6 6 6 ",
"_ _ _ _ _ _ _ _ _ _ _ _ _ _ _ _ _ _ _ _ _ _ _ _ _ _ _ _ _ _ _ _ _ _ _ _ _ _ _ _ _ _ 7 : 8 9 0 a b c d e f g h i j k l 6 6 6 6 6 ",
"_ _ _ _ _ _ _ _ _ _ _ _ _ _ _ _ _ _ _ _ _ _ _ _ _ _ _ _ _ _ _ _ _ _ _ _ _ _ _ _ _ _ _ _ _ _ _ _ _ _ _ _ _ _ _ _ m n : o 8 p q r ",
"_ _ _ _ _ _ _ _ _ _ _ _ _ _ _ _ _ _ _ _ _ _ _ _ _ _ _ _ _ _ _ _ _ _ _ _ _ _ _ _ _ _ _ _ _ _ _ _ _ _ _ _ _ _ _ _ _ _ _ _ _ _ _ _ ",
"s s s s s s s s s s s s s s s s s s s s s s s s s s s s s s s s s s s s s s s s s s s s s s s s s s s s s s s s s s s s s s s t ",
"u v v v w w w w w x y z A A B C D D D D D D D D D D D D D D D D D D D D D D D D D D D D D D D D D D D D D D D D D D D D D D E F ",
"G H I 6 6 6 6 6 6 6 6 6 6 6 6 J K K L M N N v O w y P Q D D D D D D D D D D D D D D D D D D D D D D D D D D D D D D D R S T G U ",
"V V W X 6 6 6 6 6 6 6 6 J J Y Y Z k 2 `  ...+.w @.z Q #.D D D D D D D D D D D D D D D D D D D D D D D D D D D D D D $.%.&.*.V U ",
"V V V G =.@.@.@.@.y -.;.Q Q B D D D D D D D D D D D D D D D D D D D D D D D D D D D D D D D D D D D D >.,.'.).).!.~.{.&.&.*.V ].",
"^.V V V /.(.D D D D D D D D D D D D D D D D D D D D D D D D D D D D D D D D D D D D D D D D D D >.,._.:.<.[.}.|.1.2.&.&.&.*.V 3.",
"4.V V V 5.6.7.8.B B B B B B B B B B B B B B B B B B B B B B B B B B B B B B B B B B B B B B 9.0.:.<.&.&.&.a.b.c.d.e.&.&.&.*.f.g.",
"h.^.V V 5.&.].i.j.k.k.k.k.k.k.k.k.k.k.k.k.k.k.k.k.k.k.k.k.k.k.k.k.k.k.k.k.k.k.k.k.k.k.k.k.l.m.n.&.&.&.&.&.a.o.p.D q.&.&.&.*.r.&.",
"&.s.t.V 5.&.u.V v.w.x.y.k.k.k.k.k.k.k.k.k.k.k.k.k.k.k.k.k.k.k.k.k.k.k.k.k.k.k.k.k.k.k.z.A.B.V n.&.&.&.&.&.a.C.D.D q.&.&.&.E.F.G.",
"&.H.I.V 5.&.u.V J.&.K.L.M.k.k.k.k.k.k.k.k.k.k.k.k.k.k.k.k.k.k.k.k.k.k.k.k.k.k.k.k.k.l.m.V V V n.&.&.&.&.&.a.N.O.D q.&.&.&.P.Q.R.",
"&.h.].S.T.&.U.V J.&.&.V.W.X.Y.Y.Z.`. +k.k.k.k.k.k.k.k.k.k.k.k.k.k.k.k.k.k.k.k.k.k..+++V V V V @+&.&.&.&.&.a.#+$+D q.&.&.&.%+&+*+",
"&.&.=+-+;+&.>+V J.&.&.,+'+)+|.!+[.,+~+{+`.]+k.k.k.k.k.k.k.k.k.k.k.k.k.k.k.k.k.k.k.^+/+V V V (+g.&.&.&.&.&._+:+$+D q.&.&.&.<+[+}+",
"&.&.|+H.1+g.2+1+J.&.&.&.3+4+5+6+<+&.&.&.&.~+7+k.k.k.k.k.k.k.k.k.k.k.k.k.k.k.k.k.k.^+/+V V 8+g.&.&.&.&.&.&.9+|.$+D q.&.&.&.<+0+}+",
"&.&.&.a+V (+g.b+J.&.&.&.3+D c+o.<+&.&.&.&.&.d+e+k.k.k.k.k.k.k.k.k.k.k.k.k.k.k.k.k.^+/+V V f+&.&.&.&.&.&.&.g+|.$+D q.&.&.&.h+i+}+",
"j+k+<+2+S.V *.>+J.&.&.&.3+D l+C.<+&.&.&.&.&.m+n+e+k.k.k.k.k.k.k.k.k.k.k.k.k.k.k.k.o+V p+V q+&.&.&.&.&.r+s+t+|.$+D q.&.&.&.u+|.}+",
"v+w+x+&.-+V y+2+z+&.&.&.3+D A+B+<+&.&.&.&.&.m+V n+e+k.k.k.k.k.k.k.k.k.k.k.k.k.y.C+D+V E+F+&.&.&.&.&.&.G+H+b.|.$+D q.&.&.&.I+|.J+",
"|.K+x+&.L+V y+&.2+&.&.&.3+D M+N+<+&.&.&.&.&.L+V V G O+k.k.k.k.k.k.P+Q+R+S+T+U+V+W+X+V H.U.&.&.&.&.&.&.9+Y+Z+|.$+D q.&.&.&.I+|.`+",
"|.v+ @&.5.V y+&.&.&.&.&.3+D M+.@+@&.&.&.&.&.@@#@V /+$@k.k.k.P+Q+R+%@@@&.&@|.*@=@-@X+^.;@>@&.&.&.&.&.&.9+|.,@|.$+D q.&.&.&.I+|.'@",
"|.|.)@&.5.V y+&.&.&.&.&.3+D M+|.!@&.&.&.&.&.&.&.~@/+$@k.z.A.{@@@&.&.&.&.N.]@^@/@&.X+8+&.2+&.&.&.&.&.&.(@|.v+|.$+D q.&.a._@:@|.'@",
"|.|.<@&.5.V y+&.&.&.&.&.3+D M+|.[@&.&.&.&.&.&.&.H./+$@}@m.V X+&.&.&.&.&.C.|@1@/@&.X+2@&.&.&.&.&.&.&.3@|.|.|.|.$+D q.&.<+4@5@|.'@",
"|.|.<@&.5.V y+&.&.&.&.&.3+D M+|.6@7@8@&.&.&.&.&.9@^.0@++V V X+&.&.&.&.&.C.a@b@/@&.X+c@&.&.d@_@e@f@g@|.|.|.|.|.$+D q.&.<+h@|.|.i@",
"|.|.j@&.5.V k@&.&.&.&.&.3+D M+|.l@#+g+&.&.&.&.&.&.m@V V V V X+&.&.&.&.&.C.n@b@/@&.o@p@&.&.d@o.q@|.|.|.|.|.|.|.r@D q.&.s@5@|.t@u@",
"|.|.v@w@5.V x@y@&.&.&.&.3+D M+|.z@:+g+&.&.&.&.&.&.H.V V V A@g.&.&.&.&.&.B@C@b@/@&.&.&.&.&.d@D@|.|.|.|.|.E@F@G@H@I@J@K@L@|.|.M@k+",
"|.|.|.N@O@V P@Q@y@&.&.&.3+D M+|.R@|.g+&.&.&.&.&.&.9@^.V A@S@&.&.&.&.&.&.R@T@b@/@&.&.&.&.&.U@q@|.|.|.|.V@W@X@Y@Z@&.K@`@|.|.t@ #k+",
"|.|.|.|..#V +#|.@###<+&.3+D M+|.v+|.$#%#&.&.&.&.&.&.&#*#=#-#;#&.&.&.&.%#>#T@b@/@&.&.&.&.&.8@|.|.|.|.,#'#D )#&.a.##!#|.|.|.~#d@d@",
"{#|.|.|.]#V +#|.^#/#<+&.3+D M+|.|.|.|.(#%#&.&.&.&.&.&#_#:#<#[#&.&.&.&.%#}#T@b@/@&.&.&.&.&.8@|#|.|.1#W@D 2#3#&.<+4#5#|.|.|.6#&.&.",
"7#|.|.|.8#V 9#|.|.0#<+&.3+D M+|.|.|.|.|..@a#b###d@&.c#d#e#|#[#&.&.&.f#g#}#T@b@/@&.&.&.&.&.8@|#|.|.h#D D i#j#&.<+k#|.|.|.|.6#&.|+",
"l#|.|.|.m#n#o#p#|.^#q#&.3+D r#|.|.|.|.|.|.|.t@ #a.&.s#t#|.|#[#&.&.&.R@u#}#T@b@/@&.&.&.&.&.8@|#|.v#w#D x#y#&.&.z#5#|.|.|.|.6#&.A#",
"B#|.|.|.|.C#D#E#|.|.F#w@G#H#I#J#K#L#|.|.|.|.|.M@a.&.M#N#|.|#[#&.&.&.O#6+}#T@b@/@&.&.&.&.U@P#|.|.Q#D D R#S#&.&.[@|.|.|.|.|.6#&.&.",
"T#U#|.|.|.V#W#u#p#|.|.X#w@&.Y#Z#`# $.$|.|.|.|.t@+$&.e@|.|.|#[#&.&.&.O#!+}#T@b@/@&.&.&.U@P#|.|.@$#$D D $$j#&.&.[@|.|.|.|.|.6#&.&.",
"%$&$|.|.|.|.*$&.'@|.|.|.=$C.<+&.-$>.;$>$|.|.|.|.,$&.4#N#|.|.'$U@&.)$v+|.|.T@b@/@&.&.&.!$|.|.|.~$D D D {$]$&.&.[@|.|.|.|.|.^$g#x+",
"/$($|.|.|.|._$&.'@|.|.|.^#:$<+&.3.<$D %$5+|.|.|.,$&.##[$|.|.|.'$)$v+|.|.|.T@b@/@&.&.&.!$|#|.|.Q#D D X@}$|$1$&.[@|.|.|.|.|.|.z@k+",
"D 2$|.|.|.|._$&.'@|.|.|.|.=$<+&.2+3$X@D 4$5$|.|.,$&.###+|.|.|.|.6$|.|.|.|.T@b@/@&.&.&.!$|#|.|.7$D D 8$9$*#S#&.0$N#|.|.|.|.|.^$a$",
"D b$|.|.|.|._$&.'@|.|.|.|.^#c$&.&.d$e$D f$g$|.|.h$&.##i$N#|.|.|.|.|.|.|.6$j$b@k$&.&.&.!$|#|.l$m$D D n$o$p$&.&.<+q$|.|.|.|.|.|.r$",
"D s$|.|.|.|._$&.'@|.|.|.|.|.t$&.&.3.u$D D v$|.|.`@K@&.&.w$|.|.|.|.|.x$y$z$A$B$C$%#D$&.!$|#|.E$f$D D F$G$&.&.&.<+H$N#|.|.|.|.I$J$",
"D K$|.|.|.|._$&.'@|.|.|.|.|.t$&.&.2+L$D D w#M$|.|.`@K@&.N$>#|.|.|.O$P$>.Q$R$&.U@S$T$&.!$|#|.U$D D D V$W$&.&.&.a.C.X$|.|.|.I$Y$&.",
"D Z$|.|.|.|.`$ %q@|.|.|.|.|.t$&.&.=+.%D D D +%|.|.|.8@&.##@%|.|.#%$%D %%<.&.C.D@|.T$&.!$|#|.&%D D D *%=%&.&.&.&.&.t$|.|.I$Y$&.&.",
"D -%|.|.|.|.|.;%|.|.|.|.|.|.t$&.S#*#>%,%D D '%|.|.|#8@&.## %}#)%!%D ~%{%&.&.o.q@|.T$d@r+|#|.]%D D D ^%/%&.&.&.&.&.t$|.(%Y$&.&.&.",
"D _%6$|.|.|.|.|.|.|.|.|.|.O#:%&.<%[%}%|%D D _%5$|.|#8@&.&.&.T$1%D D 2%a+&.&.D@|.|.>#H$4@3%|.4%D D D 5%&.&.&.&.&.&.t$|.6%&.&.&.&.",
"D %$7%|.|.|.|.|.|.|.|.|.|.8%<+&.&.<%p+9%D D w#0%|.|#8@&.&.&.a%%$D X@b%@@&.%#q@|.|.|.M@4@3%|.'%D D D c%&.&.&.&.&.d@t$|.6%&.&.&.&.",
"D d%e%|.|.|.|.|.|.|.|.|.O#f%<+&.&.&.g%h%D D i%j%|.|#8@&.&.&.k%D D l%m%&.&.n%v+|.|.|.}.o%3%|.p%D D D q%&.&.&.&.<+C.r%|.6%&.&.&.s%",
"t%u%v%|.|.|.|.|.|.|.|.|.r%f%:%w%w%w%x%y%t%t%t%z%|.|.9+w%w%A%B%t%t%C%D%w%w%E%v+|.|.|.>#F%3%|.G%t%t%H%I%w%w%w%w%:%J%}#|.K%w%w%w%L%",
"M%M%|.|.|.|.|.|.|.|.|.|.|.3%3%|#|#|#3%N%M%M%M%U#|.|.|#|#|#|#O%M%M%P%3%|#|#|#|.|.|.|.|.|.|.|.O%M%M%M%3%|#|#|#|#3%|.|.|.|.|#|#|#|.",
"|.|.|.|.|.|.|.|.|.|.|.|.|.|.|.|.|.|.|.|.|.|.|.|.|.|.|.|.|.|.|.|.|.|.|.|.|.|.|.|.|.|.|.|.|.|.|.|.|.|.|.|.|.|.|.|.|.|.|.|.|.|.|.|.",
"|.|.|.|.|.|.|.|.|.|.|.|.|.|.|.|.|.|.|.|.|.|.|.|.|.|.|.|.|.|.|.|.|.|.|.|.|.|.|.|.|.|.|.|.|.|.|.|.|.|.|.|.|.|.|.|.|.|.|.|.|.|.|.|.",
"Q%Q%Q%Q%Q%Q%Q%Q%Q%Q%Q%Q%Q%Q%Q%Q%Q%Q%Q%Q%Q%Q%Q%Q%Q%Q%Q%Q%Q%Q%Q%Q%Q%Q%Q%Q%Q%Q%Q%Q%Q%Q%Q%Q%Q%Q%Q%Q%Q%Q%Q%Q%Q%Q%Q%Q%Q%Q%Q%Q%Q%Q%Q%Q%"};
